# xmcd CD database file
#
# Track frame offsets:
#	182
#	8157
#	22332
#	37632
#	50832
#	64782
#	75432
#	86607
#	98907
#	110457
#	127932
#	142182
#	155532
#	171282
#	181632
#	195357
#	206907
#
# Disc length: 2956 seconds
#
# Revision: 0
# Processed by: cddbd v1.5.2PL0 Copyright (c) Steve Scherf et al.
# Submitted via: CDex 1.51
#
DISCID=de0b8a11
DTITLE=Brian Letton - The Tribute Album
DYEAR=1900
DGENRE=Country
TTITLE0=Introduction
TTITLE1=I love you because
TTITLE2=Four walls
TTITLE3=Mexican Joe
TTITLE4=I missed me
TTITLE5=When two worlds collide
TTITLE6=Yonder comes a sucker
TTITLE7=I won't forget you
TTITLE8=Snowflake
TTITLE9=Blue side of lonesome
TTITLE10=Distant Drums
TTITLE11=Bimbo
TTITLE12=Welcome to my world
TTITLE13=Am I that easy to forget
TTITLE14=Waltzing on top of the world
TTITLE15=Billy Bayou
TTITLE16=He'll have to go
EXTD=
EXTT0=
EXTT1=
EXTT2=
EXTT3=
EXTT4=
EXTT5=
EXTT6=
EXTT7=
EXTT8=
EXTT9=
EXTT10=
EXTT11=
EXTT12=
EXTT13=
EXTT14=
EXTT15=
EXTT16=
PLAYORDER=
